<svg aria-hidden="true" style="position:absolute;width:0;height:0" xmlns="http://www.w3.org/2000/svg" overflow="hidden"><defs><symbol id="icon-antenna" viewBox="0 0 72 32"><path fill="var(--color1, #f5f4fa)" d="M1.067 0h69.867c.589 0 1.067.478 1.067 1.067v29.867c0 .589-.478 1.067-1.067 1.067H1.067A1.067 1.067 0 010 30.934V1.067C0 .478.478 0 1.067 0z"/><path fill="var(--color2, #212121)" d="M44.618 19.557l-4.925-4.961.547-2.693c.131.053.283.084.442.085h.019a1.259 1.259 0 10-1.183-.828l-.003-.009-2.893.353-4.719-4.744a.308.308 0 00-.22-.093.312.312 0 00-.218.091l-.882.877a.31.31 0 000 .44l.475.481a8.716 8.716 0 001.47 10.303.302.302 0 00.085.057 1.67 1.67 0 00-.03.319v3.61H28.85a1.558 1.558 0 00-1.556 1.555v.622a.31.31 0 00.311.311h14.311a.31.31 0 00.311-.311V24.4a1.557 1.557 0 00-1.555-1.555h-3.733v-1.599a8.632 8.632 0 005.93-.876l-.045.023.477.48a.309.309 0 00.438.002l.882-.877a.31.31 0 000-.44zm-4.371-9.254a.62.62 0 011.06.442.621.621 0 01-.621.622h-.002a.623.623 0 01-.436-1.063h-.001zm-.733 2.044l-.349 1.718-.686-.69 1.035-1.029zm-.353-.526l-1.12 1.114-.866-.871 1.986-.242zm1.508 11.646c.515 0 .933.418.933.933v.311H27.913V24.4c0-.515.418-.933.933-.933h11.822zm-4.355-1.245v.622h-3.111v-.622h3.111zm-3.112-.622v-2.365c0-.755.698-1.369 1.555-1.369s1.556.614 1.556 1.369V21.6h-3.111zm3.734-.989v-1.375c0-1.098-.977-1.991-2.178-1.991h-.034c-.789 0-1.482.412-1.875 1.033l-.005.009a8.062 8.062 0 01-2.223-5.57c0-1.35.331-2.623.915-3.742l-.021.045 10.851 10.913a7.955 7.955 0 01-3.655.876 8.1 8.1 0 01-1.829-.208l.054.011zm6.585-.399L31.238 7.857l.44-.439 4.629 4.655c.002 0 .003.004.006.006l7.65 7.695-.441.439z"/><path fill="var(--color3, #2196f3)" d="M34.761 18.489h-.003-.001a.933.933 0 00-.001 1.866h.004a.933.933 0 00.001-1.866zm.217 1.154a.31.31 0 11-.438-.442.312.312 0 01.218-.091.312.312 0 01.218.532h.003z"/></symbol><symbol id="icon-astronaut" viewBox="0 0 72 32"><path fill="var(--color1, #f5f4fa)" d="M1.067 0h69.867c.589 0 1.067.478 1.067 1.067v29.867c0 .589-.478 1.067-1.067 1.067H1.067A1.067 1.067 0 010 30.934V1.067C0 .478.478 0 1.067 0z"/><path fill="var(--color3, #2196f3)" d="M45.318 9.306a.312.312 0 00-.249-.211h-.002l-1.114-.162-.499-1.01c-.105-.213-.453-.213-.558 0l-.499 1.01-1.115.162a.31.31 0 00-.173.531l.807.786-.19 1.11a.311.311 0 00.451.328l.997-.525.997.524a.314.314 0 00.329-.024l-.001.001a.307.307 0 00.123-.304l-.19-1.11.807-.786a.312.312 0 00.078-.321l.001.002zm-1.436.774a.309.309 0 00-.089.278v-.002l.111.65-.583-.307a.305.305 0 00-.292.001l.002-.001-.583.307.111-.65a.308.308 0 00-.089-.275l-.473-.461.653-.095a.31.31 0 00.234-.17l.292-.591.292.591a.31.31 0 00.234.17l.653.095-.472.461zm-1.971 8.558h-.622v.622h.622v-.622zm0 1.245h-.622v.622h.622v-.622zm.622-.623h-.622v.622h.622v-.622zm-1.244 0h-.622v.622h.622v-.622zm-1.556 2.8h-.622v.622h.622v-.622zm0 1.245h-.622v.622h.622v-.622zm.623-.622h-.622v.622h.622v-.622zm-1.245 0h-.622v.622h.622v-.622zM36 20.816h-.622v.622H36v-.622zm0 1.244h-.622v.622H36v-.622zm.622-.622H36v.622h.622v-.622zm-1.244 0h-.622v.622h.622v-.622zm-5.289-11.2h-.622v.622h.622v-.622zm0 1.244h-.622v.622h.622v-.622zm.622-.622h-.622v.622h.622v-.622zm-1.244 0h-.622v.622h.622v-.622z"/><path fill="var(--color2, #212121)" d="M41.084 14.926a1.033 1.033 0 00-.688-.41l-.005-.001a1.03 1.03 0 00-.784.207l.002-.002-.73.56-1.107.827-.792-.316a4.046 4.046 0 002.4-3.687c0-2.23-1.822-4.045-4.061-4.045s-4.061 1.814-4.061 4.045c0 .808.242 1.56.653 2.193l-1.615-.014c-.005 0-.009.003-.014.003a.314.314 0 00-.093.019l.002-.001c-.007.003-.015.004-.022.008a.049.049 0 00-.011.004l-1.886.931-.001.001-1.104.531a.232.232 0 00-.038.021l.001-.001a1.04 1.04 0 00-.347 1.345l-.003-.006c.128.247.346.433.609.516l.007.002a1.035 1.035 0 00.809-.078l-.005.003.81-.43 1.321-.682.791-.005-3.956 3.937a.96.96 0 00-.286.685v.004a.97.97 0 00.972.969h.002c.25 0 .498-.094.689-.283l.767-.763 1.015-.758.525.523-1.809 1.802a.958.958 0 00-.286.685v.003a.973.973 0 00.973.971h.001a.974.974 0 00.689-.283l2.618-2.609c.004-.004.009-.005.013-.009l3.013-3.301 2.025.288a.312.312 0 00.153-.019l.029-.014c.011-.006.023-.009.034-.016l1.874-1.244c.007-.005.011-.012.017-.017.007-.006.017-.008.024-.015l.742-.695a1.034 1.034 0 00.122-1.38l.002.003zm-13.175 2.107a.404.404 0 01-.329.029l.003.001a.418.418 0 01-.125-.734l.001-.001.766-.369.185.539.077.227-.579.307zm2.04-1.067l-.903.467-.149-.435-.107-.313 1.182-.584-.023.866zm8.808-3.861c0 .536-.128 1.041-.349 1.493l-2.439-1.108a1.086 1.086 0 00-.456-.807l-.003-.002.854-2.835a3.429 3.429 0 012.394 3.26zm-6.876 0a3.434 3.434 0 013.438-3.422c.147 0 .292.013.435.031l-.835 2.773-.033-.003c-.602 0-1.093.488-1.093 1.089s.49 1.089 1.093 1.089c.405 0 .755-.223.944-.551l2.253 1.024a3.439 3.439 0 01-6.201-2.028zm3.474.466a.47.47 0 01-.47.467h-.001a.47.47 0 01-.469-.467.47.47 0 01.94 0zm-7.25 8.764a.355.355 0 01-.498.001.344.344 0 010-.492l.561-.559.497.494-.559.557zm1.874 2.178a.355.355 0 01-.498.001.344.344 0 010-.492l.562-.559.497.494-.56.557zm2.031-2.023l-.001.001-1.03 1.027-.497-.494 1.03-1.025a.292.292 0 00.052-.079c.004-.008.012-.015.015-.023.01-.024.011-.05.015-.075.002-.014.008-.028.008-.043 0-.021-.007-.041-.012-.061-.004-.019-.004-.038-.011-.056a.324.324 0 00-.053-.081c-.006-.007-.008-.015-.015-.022h-.001l-.001-.001-.937-.933c-.01-.01-.023-.014-.034-.023a.35.35 0 00-.049-.033l-.002-.001a.253.253 0 00-.053-.018h-.002a.257.257 0 00-.059-.012H30.359a.325.325 0 00-.044.003h.002c-.021.003-.041.005-.061.012s-.037.016-.055.026c-.012.006-.025.009-.035.017l-1.035.772-.525-.523 1.399-1.392 2.543 2.502-.541.536zm3.978-4.093c-.009-.001-.017.002-.026.002h-.016a.305.305 0 00-.105.018l.002-.001a.275.275 0 00-.057.028l.001-.001a.343.343 0 00-.049.036c-.007.006-.017.01-.023.017l-2.741 3.002-2.525-2.483 1.653-1.644a.31.31 0 00-.22-.531h-.002l-1.294.007.016-.938 1.811.015a4.044 4.044 0 002.904 1.226h.002c.255 0 .504-.027.746-.071a.294.294 0 00.075.049l1.406.56.089.442.104.517-1.752-.249zm2.357.104l-.182-.909.844-.63.221.293.331.44-1.214.806zm2.19-1.652l-.489.458-.543-.721.485-.372a.425.425 0 01.597.083.415.415 0 01-.05.552z"/><path fill="var(--color2, #212121)" d="M34.601 17.484l-1.25-1.245a.31.31 0 00-.438 0l-1.25 1.245a.315.315 0 000 .442l1.25 1.245a.31.31 0 00.438 0l1.25-1.245a.31.31 0 000-.442zm-1.469 1.026l-.809-.805.809-.806.809.805-.809.805zm3.547-8.885l-.15.604c.041.01 1.014.263 1.014 1.253h.622c0-1.177-.972-1.73-1.486-1.858zm1.486 2.48h-.622v.622h.622v-.622z"/></symbol><symbol id="icon-client-1" viewBox="0 0 60 32"><path d="M24.533 7.111l2.598 2.46h7.248v6.862l2.598 2.46V7.112H24.533z"/><path d="M22.4 9.467v11.444h12.089v-4.549l-7.281-6.893-4.808-.003zm9.786 9.771h-7.873v-7.697h.556v7.176h7.317v.521zm-6.305 3.796l.291-.599h.243l-.424.799v.465h-.22v-.465l-.424-.798h.244l.291.599zm1.248.371h-.489l-.102.294h-.228l.477-1.264h.197l.478 1.264h-.229l-.103-.294zm-.428-.177h.366l-.183-.524-.183.524zm1.294.13c0-.058.016-.112.048-.16a.778.778 0 01.188-.175.795.795 0 01-.101-.153l-.002-.005a.32.32 0 01-.029-.126c0-.099.03-.177.09-.235s.141-.087.243-.087c.092 0 .167.027.226.082s.089.121.089.201v.002a.275.275 0 01-.041.145l.001-.001a.477.477 0 01-.13.131l-.002.001-.086.063.244.288a.504.504 0 00.053-.231h.183a.634.634 0 01-.11.383l.186.22H28.8l-.071-.084a.517.517 0 01-.31.102h-.014.001a.438.438 0 01-.3-.099.331.331 0 01-.112-.249v-.012.001zm.418.19a.321.321 0 00.199-.071l-.276-.326-.027.019c-.069.053-.104.113-.104.181 0 .058.019.106.057.142a.207.207 0 00.141.055h.011zm-.116-.814c0 .049.03.11.09.183l.096-.066.027-.022a.157.157 0 00.054-.118v-.005-.001a.11.11 0 00-.037-.083.13.13 0 00-.09-.036h-.01a.123.123 0 00-.093.042.154.154 0 00-.037.1v.006zm2.296.554c-.013.135-.063.24-.149.316s-.202.113-.346.113a.505.505 0 01-.267-.071.481.481 0 01-.176-.201l-.001-.003a.726.726 0 01-.065-.302v-.123c0-.119.021-.224.063-.315a.478.478 0 01.455-.284c.139 0 .252.038.337.114s.134.183.148.321h-.219c-.011-.091-.037-.156-.08-.196s-.105-.061-.187-.061c-.095 0-.169.035-.22.105s-.077.172-.078.306v.112c0 .137.025.241.073.313s.121.108.215.108c.086 0 .151-.02.195-.058s.071-.103.082-.193h.219zm1.206-.188c0 .124-.021.233-.064.326s-.105.165-.184.215a.503.503 0 01-.274.075.508.508 0 01-.274-.075.503.503 0 01-.185-.211l-.001-.003a.739.739 0 01-.066-.308v-.012.001-.071c0-.123.021-.232.065-.326s.106-.166.185-.216c.08-.05.171-.076.274-.076s.194.025.273.075c.08.049.141.121.185.213s.065.201.066.324v.07zm-.22-.066a.553.553 0 00-.08-.322.258.258 0 00-.213-.112h-.012.001-.009a.26.26 0 00-.213.111l-.001.001a.55.55 0 00-.082.315v.073c0 .139.027.246.081.322s.129.114.225.114c.097 0 .172-.037.224-.111s.079-.182.079-.325v-.066z"/></symbol><symbol id="icon-client-2" viewBox="0 0 60 32"><path d="M29.147 7.799h.049c.09 0 .187.009.283.017.424.03.845.093 1.259.19V6.988a7.522 7.522 0 00-1.3-.207 8.957 8.957 0 00-.513-.025h-.164c-.88.004-1.756.116-2.608.336a10.55 10.55 0 00-2.768 1.126v10.097a10.96 10.96 0 012.56-1.011l.078-.017a11.144 11.144 0 012.184-.339l.03-.001h.029c.125-.006.25-.01.379-.011v-1.035a12.208 12.208 0 00-2.963.402l.085-.019c-.348.091-.684.188-1 .297l-.36.122V8.83l.154-.074a9.86 9.86 0 013.712-.953l.027-.001.016-.001.017.001h-.001c.143-.007.287-.011.428-.011h.162c.075.002.149.004.224.008z"/><path d="M31.684 8.865h-.009a9.214 9.214 0 01-1.551-.13l.054.008a7.51 7.51 0 01-.47-.095v9.981c.647.16 1.312.238 1.979.233a10.672 10.672 0 002.683-.352l-.074.017a10.547 10.547 0 002.818-1.153l-.049.027V7.485c-.758.421-1.635.773-2.559 1.011l-.078.017c-.896.23-1.817.348-2.742.352zm3.991.172l.36-.121v7.875l-.154.074a9.429 9.429 0 01-1.771.646l-.068.015a9.59 9.59 0 01-2.354.305c-.238 0-.473-.01-.701-.03l-.246-.022V9.68l.287.019c.19.013.411.02.634.02h.026-.001a12.206 12.206 0 002.989-.383c.336-.089.669-.188 1-.299zM24.084 21.764a.53.53 0 00-.382-.162h-.02.001-.008a.593.593 0 00-.227.045l.004-.001a.524.524 0 00-.295.296l-.001.004a.588.588 0 00-.041.223v1.349a.63.63 0 00.053.277.482.482 0 00.32.277.77.77 0 00.202.028.57.57 0 00.559-.568v-.151h-.353v.128a.33.33 0 01-.021.114l.001-.002a.212.212 0 01-.051.076.25.25 0 01-.147.052l-.021.001a.178.178 0 01-.144-.073.313.313 0 01-.047-.167v-.014.001-1.258a.44.44 0 01.043-.202.181.181 0 01.174-.082h-.001.007c.062 0 .116.03.15.076a.288.288 0 01.058.173v.125h.349v-.138-.006a.625.625 0 00-.045-.234l.002.004a.565.565 0 00-.118-.19zm2.095-.015a.628.628 0 00-.401-.149.6.6 0 00-.21.038.56.56 0 00-.322.296l-.001.003a.63.63 0 00-.052.261v1.294a.621.621 0 00.052.265.527.527 0 00.137.181.55.55 0 00.186.114.609.609 0 00.612-.114l-.001.001a.555.555 0 00.184-.446v-1.294-.012a.626.626 0 00-.053-.253l.002.004a.586.586 0 00-.133-.189zm-.164 1.744l.001.02a.23.23 0 01-.071.167.256.256 0 01-.332-.001.23.23 0 01-.071-.167l.001-.022v.001-1.294l-.001-.02a.23.23 0 01.071-.167.257.257 0 01.332 0 .23.23 0 01.071.167l-.001.021v-.001 1.294zm2.915.578v-2.45h-.339l-.445 1.297h-.006l-.449-1.296h-.335v2.449h.35v-1.49h.006l.343 1.053h.175l.345-1.053h.006v1.49h.35zm1.988-2.278a.488.488 0 00-.198-.134.764.764 0 00-.24-.038h-.533v2.45h.349v-.957h.18a.638.638 0 00.315-.067.511.511 0 00.19-.185l.001-.002a.586.586 0 00.08-.213 1.7 1.7 0 00.019-.256v-.023.001a1.377 1.377 0 00-.034-.35.52.52 0 00-.129-.225zm-.18.747a.308.308 0 01-.033.129l.001-.002a.193.193 0 01-.089.085h-.001a.348.348 0 01-.147.031h-.019.001-.159v-.833h.197a.33.33 0 01.143.032l-.002-.001a.2.2 0 01.081.089v.001a.38.38 0 01.031.137v.163c0 .057.004.116 0 .168h-.004zm1.834-.919h-.286l-.54 2.45h.349l.102-.526h.476l.103.526h.349l-.553-2.45zm-.322 1.59l.172-.888h.006l.171.888h-.349zm2.577-.114h-.006l-.527-1.476h-.336v2.45h.349v-1.473h.007l.533 1.473h.329v-2.449h-.349v1.476zm2.132-1.476l-.281.974h-.007l-.281-.974h-.37l.479 1.414v1.035h.349v-1.035l.479-1.414h-.369zm-13.848 3.141h.168v.472h.114v-.472h.167v-.097h-.449v.097zm1.414-.096l-.22.569h.121l.047-.129h.227l.048.129h.124l-.226-.569h-.121zm-.018.343l.077-.211.077.211h-.155zm1.416.016h.132v.073a.214.214 0 01-.135.048h-.008a.145.145 0 01-.113-.054.24.24 0 01-.042-.136v-.013.001c0-.127.055-.19.164-.19l.012-.001a.12.12 0 01.116.09v.001l.112-.022c-.024-.111-.104-.167-.241-.167h-.008a.289.289 0 00-.191.073.276.276 0 00-.082.219v-.001.013c0 .076.028.146.074.201.05.052.12.084.198.084l.019-.001h-.001.01a.339.339 0 00.232-.091v-.224h-.246v.096zm1.427-.359h-.115v.569h.398v-.097h-.283v-.472zm1.207 0h-.115v.569h.115v-.569zm1.18.379l-.233-.38h-.111v.569h.107v-.372l.229.372h.114v-.569h-.106v.38zm1.067-.061h.283v-.097h-.283v-.124h.305v-.097h-.42v.569h.432v-.097h-.316v-.154zm2.587-.094h-.224v-.224h-.114v.569h.114v-.249h.224v.249h.114v-.569h-.114v.224zm1.073.094h.284v-.097h-.284v-.124h.306v-.097h-.42v.569h.431v-.097h-.316v-.154zm1.455 0c.099-.016.149-.068.149-.158l.001-.016a.136.136 0 00-.056-.11.312.312 0 00-.144-.034l-.023.001h.001-.241v.569h.114v-.238h.031c.022 0 .044.005.063.013h-.001c.017.01.031.025.041.042l.124.181h.137l-.069-.111a.406.406 0 00-.124-.136l-.001-.001zm-.115-.079h-.084v-.143h.09l.024-.001c.033 0 .064.005.094.015l-.002-.001a.077.077 0 01.025.056.075.075 0 01-.031.06.316.316 0 01-.095.014l-.022-.001h.001zm1.213.079h.283v-.097h-.283v-.124h.306v-.097h-.421v.569h.432v-.097h-.316v-.154z"/></symbol><symbol id="icon-client-3" viewBox="0 0 60 32"><path d="M25.367 23.394a.04.04 0 01.028.012l.073.077a.588.588 0 01-.206.145.727.727 0 01-.292.052h-.015a.71.71 0 01-.265-.051l.005.002a.598.598 0 01-.339-.346l-.001-.004a.764.764 0 01-.046-.263v-.01V22.998c0-.095.018-.185.052-.267l-.002.005a.628.628 0 01.361-.351.797.797 0 01.282-.049.713.713 0 01.263.044c.072.03.139.071.196.123l-.061.082a.054.054 0 01-.015.015.041.041 0 01-.022.007h-.003a.062.062 0 01-.027-.009l-.033-.022-.046-.028a.489.489 0 00-.141-.048h-.003a.62.62 0 00-.1-.009h-.016a.526.526 0 00-.199.038l.004-.001a.455.455 0 00-.262.267.596.596 0 00-.038.216.614.614 0 00.038.22c.022.06.057.116.101.163a.414.414 0 00.152.101c.06.024.124.036.188.035a.842.842 0 00.112-.007.42.42 0 00.242-.112.052.052 0 01.034-.014zm2.113-.386a.739.739 0 01-.049.271.624.624 0 01-.35.347l-.004.001a.799.799 0 01-.562-.002l.006.002a.617.617 0 01-.352-.347l-.001-.004a.764.764 0 01.002-.548l-.002.005a.623.623 0 01.139-.213.633.633 0 01.211-.132l.004-.001a.799.799 0 01.562.002l-.006-.002a.617.617 0 01.354.349.73.73 0 01.05.273zm-.192 0v-.011a.63.63 0 00-.036-.21l.001.004a.434.434 0 00-.25-.265L27 22.525a.571.571 0 00-.408.001l.004-.001a.429.429 0 00-.252.263l-.001.003a.706.706 0 000 .436.43.43 0 00.25.264l.003.001a.596.596 0 00.404 0 .415.415 0 00.253-.265.623.623 0 00.035-.218zm1.633.229l.02.049a2.405 2.405 0 01.046-.099l-.001.002.467-.809c.009-.014.018-.023.027-.025s.02-.004.032-.004H29.657v1.316h-.164v-1.008l-.001-.023.001-.024v.001l-.47.821a.074.074 0 01-.066.041h-.027a.078.078 0 01-.068-.04l-.484-.826v1.057h-.158v-1.314H28.365c.011 0 .022.002.032.005h-.001a.05.05 0 01.025.025l.477.81a.212.212 0 01.023.045l.001.002zm1.759-.065v.493h-.183v-1.314h.424c.075 0 .148.01.218.03l-.006-.001a.44.44 0 01.161.082.33.33 0 01.091.129.443.443 0 01-.003.336.367.367 0 01-.098.131h-.001a.463.463 0 01-.159.086l-.003.001a.714.714 0 01-.22.031l-.221-.004zm0-.142h.221a.456.456 0 00.142-.02.3.3 0 00.102-.057.228.228 0 00.062-.085l.001-.002a.27.27 0 00.022-.108v-.004-.013a.248.248 0 00-.019-.095l.001.002a.255.255 0 00-.064-.09.363.363 0 00-.218-.072l-.029.001h.001-.221v.542zm2.458.636h-.147a.071.071 0 01-.038-.012.076.076 0 01-.023-.03l-.124-.318h-.625l-.129.318a.066.066 0 01-.023.029.065.065 0 01-.039.013h-.146l.549-1.317h.19l.556 1.317zm-.905-.489h.516l-.218-.536a.8.8 0 01-.04-.117l-.001-.006-.021.069a.452.452 0 01-.022.06l.002-.004-.216.535zm1.695-.821a.081.081 0 01.028.024l.8.992V22.35h.164v1.317h-.093a.078.078 0 01-.035-.008h.001a.113.113 0 01-.029-.024l-.799-.991a.338.338 0 010 .045v.979h-.164v-1.317h.097c.011 0 .022.002.033.006zm2.34.786v.523h-.183v-.523l-.506-.793h.168c.013 0 .026.004.036.012.01.008.018.018.025.029v.001l.316.511a.765.765 0 01.056.116l.024-.057a.425.425 0 01.031-.06l.312-.515a.131.131 0 01.024-.028.057.057 0 01.036-.013h.169l-.507.796zm-7.437-3.002c.08.01.16.018.242.025 1.234-.526 2.278-1.387 3.001-2.475s1.094-2.355 1.066-3.643l-1.36-1.296c.09.427.142.918.142 1.421a7.17 7.17 0 01-.532 2.72l.017-.048a7.573 7.573 0 01-2.575 3.296z"/><path d="M28.345 20.08l.037.007a7.32 7.32 0 002.719-3.394c.3-.747.473-1.614.473-2.521 0-.619-.081-1.22-.233-1.791l.011.049-1.937-1.845a8.455 8.455 0 01.962 3.944c0 .335-.019.666-.057.991l.004-.04a8.707 8.707 0 01-1.979 4.6zm6.569-4.512a6.683 6.683 0 01-2.279 3.639 7.265 7.265 0 01-1.047.722l-.036.019a6.479 6.479 0 002.525-1.362l-.008.006a6.096 6.096 0 001.615-2.235l.015-.04-.786-.748z"/><path d="M34.606 15.36l-1.119-1.066a6.534 6.534 0 01-1.065 3.463l.015-.025a7.002 7.002 0 01-2.737 2.454h.006c.251 0 .501-.014.751-.043a6.916 6.916 0 002.699-1.887l.007-.008a6.403 6.403 0 001.436-2.847l.008-.043zm-6.099-5.554l-1.334-1.273c-1.193.439-2.219 1.211-2.943 2.215s-1.115 2.193-1.118 3.411c.005 1.347.48 2.652 1.351 3.712s2.089 1.812 3.46 2.139c1.224-1.42 1.94-3.176 2.046-5.011s-.407-3.654-1.461-5.193zm9.182 5.358c-.005-1.597-.673-3.128-1.858-4.257s-2.792-1.766-4.468-1.771a6.51 6.51 0 00-2.265.402l8.17 7.783a5.623 5.623 0 00.422-2.157z"/></symbol><symbol id="icon-client-4" viewBox="0 0 60 32"><path d="M20.41 13.095h-.001c-.804 0-1.456.636-1.456 1.419v.001c0 .784.652 1.419 1.456 1.419h.001c.804 0 1.456-.636 1.456-1.419v-.001c0-.784-.652-1.419-1.456-1.419zm10.75-.454c-.003-1.089-.447-2.132-1.237-2.902a4.277 4.277 0 00-5.956-.001 4.063 4.063 0 00-1.237 2.903v6.004s8.43-.915 8.431-6.003v-.001zM16 20.616c.004.793.333 1.507.86 2.019l.001.001a2.975 2.975 0 004.144 0l-.001.001a2.823 2.823 0 00.861-2.018V16.44s-5.866.638-5.866 4.177zm2.933.748h-.002a.775.775 0 01-.428-.128l.003.002a.759.759 0 01-.281-.331l-.002-.005a.716.716 0 01-.042-.437l-.001.005a.745.745 0 01.21-.383.776.776 0 01.388-.204l.005-.001a.784.784 0 01.789.319.729.729 0 01.07.708l.002-.005a.75.75 0 01-.415.407.774.774 0 01-.294.057v-.003zm5.988-.464h-.6v.62h-.313v-1.516h.988v.253h-.675v.391h.6v.252zm1.502-.104c0 .149-.026.28-.079.393s-.128.199-.227.26a.615.615 0 01-.326.092h-.012.001-.019a.602.602 0 01-.545-.345l-.002-.004a.882.882 0 01-.083-.375v-.013.001-.075a.92.92 0 01.08-.394.602.602 0 01.566-.353.607.607 0 01.564.353.902.902 0 01.081.393v.068zm-.317-.069c0-.159-.029-.28-.086-.363a.28.28 0 00-.232-.124h-.013.001-.012a.279.279 0 00-.23.122l-.001.001c-.057.081-.086.201-.086.358v.074c0 .155.028.275.085.361s.139.128.246.128h.012a.276.276 0 00.229-.122l.001-.001c.056-.083.085-.203.085-.361v-.074zm1.33.395v-.009a.158.158 0 00-.062-.126.815.815 0 00-.225-.1 1.586 1.586 0 01-.266-.108l.009.004c-.172-.093-.259-.218-.259-.376 0-.082.023-.155.069-.219s.113-.115.199-.151c.087-.036.184-.054.292-.054s.205.02.289.059a.436.436 0 01.268.41h-.313a.203.203 0 00-.065-.161.269.269 0 00-.185-.059.283.283 0 00-.178.049.152.152 0 00-.064.124v.004c0 .049.025.09.074.124.05.033.123.065.22.094.178.053.307.12.388.199s.122.178.122.295c0 .132-.05.235-.149.309s-.233.112-.401.112a.77.77 0 01-.319-.064.523.523 0 01-.219-.174l-.001-.002a.448.448 0 01-.075-.249v-.009h.314c0 .167.1.251.3.251a.293.293 0 00.174-.045.147.147 0 00.062-.121v-.007zm1.668-.866h-.464v1.263h-.313v-1.263h-.458v-.253h1.236v.253zm1.092.607h-.6v.406h.704v.251h-1.017v-1.516h1.015v.253h-.702v.361h.6v.245zm.849.102h-.249v.555h-.313v-1.516h.564c.179 0 .317.04.415.12s.146.193.146.338c0 .103-.023.19-.068.26a.455.455 0 01-.2.163l-.003.001.328.62v.015h-.336l-.284-.555zm-.249-.254h.252c.078 0 .139-.02.182-.059a.215.215 0 00.065-.154v-.012.001c0-.071-.021-.128-.061-.169s-.102-.061-.186-.061h-.251v.455zm1.893.274v.534h-.313v-1.516h.592c.114 0 .214.021.3.063a.469.469 0 01.27.44c0 .149-.051.266-.153.352s-.242.128-.422.128h-.274zm0-.253h.279c.083 0 .146-.02.188-.059a.21.21 0 00.066-.166v-.011a.252.252 0 00-.066-.17.247.247 0 00-.181-.071h-.286v.476zm1.977.131h-.6v.406h.704v.251h-1.017v-1.516h1.015v.253h-.702v.361h.6v.245zm1.45-.607h-.464v1.263h-.313v-1.263h-.458v-.253h1.235v.253zm1.092.607h-.6v.406h.704v.251h-1.017v-1.516h1.015v.253h-.702v.361h.6v.245zm.849.102h-.249v.555h-.313v-1.516h.564c.179 0 .318.04.415.12s.146.193.146.338c0 .103-.022.19-.068.26a.455.455 0 01-.2.163l-.003.001.328.62v.015h-.336l-.284-.555zm-.249-.254h.252a.26.26 0 00.182-.059.215.215 0 00.065-.154v-.012.001c0-.071-.021-.128-.062-.169s-.102-.061-.187-.061h-.251v.455zm1.836.411v-.009a.161.161 0 00-.062-.126.815.815 0 00-.225-.1 1.633 1.633 0 01-.267-.108l.009.004c-.172-.093-.258-.218-.258-.376 0-.082.023-.155.069-.219s.113-.115.199-.151c.087-.036.184-.054.292-.054s.205.02.289.059a.436.436 0 01.268.41h-.313a.203.203 0 00-.065-.161.269.269 0 00-.185-.059.283.283 0 00-.178.049.152.152 0 00-.064.123v.004c0 .049.025.09.074.124.05.033.123.065.22.094.178.053.307.12.388.199s.122.178.122.295c0 .132-.05.235-.149.309s-.233.112-.401.112h-.01a.757.757 0 01-.313-.066l.005.002a.517.517 0 01-.219-.174l-.001-.002a.446.446 0 01-.075-.249v-.009h.313c0 .167.1.251.3.251a.295.295 0 00.174-.045.148.148 0 00.063-.121v-.006z"/></symbol><symbol id="icon-client-5" viewBox="0 0 60 32"><path d="M21.507 21.788a.557.557 0 01.123.359l.001.028a.571.571 0 01-.191.426h-.001a.825.825 0 01-.554.166h-.974V20.49h.954a.805.805 0 01.531.153l-.002-.002a.52.52 0 01.186.398l-.001.029v-.001a.528.528 0 01-.111.348.52.52 0 01-.291.178.55.55 0 01.329.195zm-1.143-.344h.408a.383.383 0 00.259-.076.272.272 0 00.088-.2l-.001-.024v.001l.001-.019a.278.278 0 00-.087-.203.39.39 0 00-.235-.078l-.033.001h.001-.401v.597zm.707.873a.28.28 0 00.097-.213l-.001-.019v-.016a.285.285 0 00-.099-.217.415.415 0 00-.25-.083l-.028.001h.001-.427v.626h.433a.428.428 0 00.274-.079zm2.386.45l-.531-.89h-.199v.89h-.457V20.49h.864l.059-.002c.207 0 .397.074.544.197l-.001-.001a.727.727 0 01.062.944l.001-.002a.699.699 0 01-.412.231l.565.91h-.496zm-.73-1.201h.373c.26 0 .389-.115.389-.345l.001-.019a.34.34 0 00-.096-.237.405.405 0 00-.259-.094l-.036.002h.002-.378l.005.693zm3.225.742h-.91l-.161.459h-.479l.836-2.252h.517l.832 2.252h-.479l-.157-.458zm-.122-.345l-.332-.961-.332.961h.665zm3.246.804h-.454l-1.016-1.548v1.548h-.452V20.49h.452l1.016 1.557V20.49h.453v2.277zm2.586-.546a.985.985 0 01-.405.399l-.005.003c-.197.1-.416.149-.637.143h-.807v-2.277H30.65c.219 0 .427.052.61.144l-.008-.004a.958.958 0 01.41.397 1.327 1.327 0 01-.003 1.202l.003-.008zm-.519-.054a.834.834 0 00-.001-1.088l.001.001a.783.783 0 00-.569-.193h.002-.315v1.474h.315a.781.781 0 00.568-.194l-.001.001zM26.236 7.822s5.85 2.217 5.726 5.426v5.427s-5.845-2.219-5.723-5.427l-.003-5.426zm10.937 9.582a7.908 7.908 0 013.681-1.372l.035-.003V14.33a7.684 7.684 0 00-3.698 3.043l-.019.031z"/><path d="M36.509 17.916a8.009 8.009 0 014.325-3.924l.055-.018V9.079s-8.331 3.158-8.154 7.727v7.727s.371-.141.955-.406a8.033 8.033 0 012.808-6.202l.011-.009z"/><path d="M35.717 20.787a8.016 8.016 0 01.291-1.582 7.446 7.446 0 00-1.764 4.659v.008a23.09 23.09 0 001.716-.909l-.114.062a7.775 7.775 0 01-.157-1.577c0-.232.01-.462.029-.69l-.002.03zm.331.027a7.76 7.76 0 00.11 2.074l-.008-.048c2.276-1.367 4.833-3.48 4.735-6.033v-.223a7.452 7.452 0 00-4.333 2.034l.002-.002a7.448 7.448 0 00-.506 2.171l-.002.027z"/></symbol><symbol id="icon-client-6" viewBox="0 0 60 32"><path d="M30.485 15.414a1.152 1.152 0 01-.202-.735v.003-1.061c0-.325.068-.572.202-.741s.366-.253.693-.252c.308 0 .526.072.655.216a.936.936 0 01.194.634v.249h-.55v-.252-.033c0-.076-.006-.15-.017-.222l.001.008a.246.246 0 00-.078-.147.297.297 0 00-.176-.058l-.024.001h.001l-.023-.001a.316.316 0 00-.188.062l.001-.001a.287.287 0 00-.091.16v.002a1.35 1.35 0 00-.022.262v1.287a.71.71 0 00.072.365l-.002-.004a.266.266 0 00.109.087l.002.001a.276.276 0 00.143.021h-.001a.277.277 0 00.196-.059h-.001a.264.264 0 00.082-.155v-.001c.013-.085.019-.172.017-.258v-.261h.55v.238l.002.065c0 .226-.072.435-.195.605l.002-.003c-.126.158-.342.236-.659.236s-.556-.084-.692-.259zm2.292.011c-.139-.165-.209-.406-.209-.724v-1.116c0-.315.07-.553.209-.715s.371-.242.697-.242c.324 0 .555.081.694.242s.21.4.21.715v1.116c0 .315-.071.556-.212.723s-.372.249-.692.249c-.32 0-.557-.084-.697-.248zm.954-.267a.663.663 0 00.066-.33v-1.366l.001-.037a.649.649 0 00-.068-.291l.002.004a.253.253 0 00-.111-.088l-.002-.001a.269.269 0 00-.146-.018h.001c-.011-.002-.024-.002-.037-.002a.288.288 0 00-.11.022l.002-.001a.264.264 0 00-.112.088l-.001.001a.639.639 0 00-.066.324v1.372a.661.661 0 00.066.33c.032.034.07.062.114.081l.002.001a.36.36 0 00.286-.001l-.002.001a.344.344 0 00.116-.082v-.006zm1.309-2.497h.593l.446 2.059.456-2.059h.577l.058 2.971h-.426l-.045-2.065-.44 2.065h-.342l-.456-2.072-.042 2.072h-.431l.053-2.971zm2.793 0h.923c.532 0 .797.281.797.844 0 .539-.28.807-.84.807h-.314v1.32h-.57l.004-2.971zm.789 1.27a.41.41 0 00.313-.094.518.518 0 00.082-.335l.001-.032c0-.084-.01-.166-.029-.245l.001.007a.228.228 0 00-.042-.082.251.251 0 00-.071-.059l-.001-.001a.54.54 0 00-.223-.048l-.032.001h.001-.221v.887h.221zm1.753-1.27h.612l.628 2.971h-.531l-.124-.685h-.546l-.128.685h-.539l.628-2.971zm.523 1.942l-.213-1.247-.213 1.247h.426zm1.224-1.942h.399l.763 1.695v-1.695h.473v2.971h-.379l-.768-1.769v1.769h-.489l.001-2.971zm2.743 1.839l-.635-1.834h.534l.388 1.178.363-1.178h.523l-.627 1.834v1.133h-.547V14.5zm-13.5 2.431v.155H30.9v1.207h-.195v-1.207h-.467v-.155h1.127zm1.458 1.363h-.154a.062.062 0 01-.038-.013.07.07 0 01-.025-.031l-.135-.324h-.645l-.135.324a.102.102 0 01-.02.037.065.065 0 01-.039.013h-.154l.57-1.362h.198l.577 1.357zm-.944-.506h.538l-.228-.555a1.064 1.064 0 01-.041-.121l-.002-.007-.021.072-.021.057-.226.554zm1.926.372a.955.955 0 00.107 0 .693.693 0 00.177-.042l-.004.002.077-.033v-.306h-.231a.04.04 0 01-.028-.011.03.03 0 01-.011-.023v-.106h.442v.522a.803.803 0 01-.235.109l-.006.001a.84.84 0 01-.138.028h-.005a1.638 1.638 0 01-.164.009h-.008a.798.798 0 01-.286-.053l.005.002a.664.664 0 01-.374-.355l-.002-.004a.73.73 0 01-.053-.274v-.009-.008a.78.78 0 01.053-.282l-.002.005a.633.633 0 01.375-.358.876.876 0 01.305-.051c.053 0 .106.004.158.012a.715.715 0 01.35.16l-.055.084a.052.052 0 01-.018.018.053.053 0 01-.026.007.066.066 0 01-.036-.011c-.022-.012-.041-.022-.058-.034l.003.002a.496.496 0 00-.073-.036l-.003-.001a.525.525 0 00-.101-.029l-.004-.001a.735.735 0 00-.137-.012h-.015a.623.623 0 00-.217.039l.004-.001a.459.459 0 00-.273.278.688.688 0 00.002.459l-.002-.005a.493.493 0 00.28.28.595.595 0 00.226.027zm1.816-.022h.622v.155h-.812V16.93h.195l-.005 1.207zm1.27.155h-.195v-1.362h.195v1.363zm.725-1.355a.088.088 0 01.029.025l.833 1.027-.001-.024.001-.026v.001-1.015h.17v1.368H38.543a.086.086 0 01-.036-.008h.001a.108.108 0 01-.03-.026l-.832-1.026v1.059h-.163v-1.362h.101c.011 0 .022.002.032.006zm2.467-.007v.15h-.691v.45h.56v.144h-.56v.465h.691v.15h-.891v-1.359h.891zm-20.42-8.414l8.652 2.326v8.15l-8.652-2.324V8.518zm-.554-.695v9.242l9.761 2.625v-9.241l-9.761-2.625z"/><path d="M24.34 23.979l-9.762-2.627v-9.241l9.762 2.626v9.242z"/><path d="M19.27 8.412l8.54 2.297-3.632 3.439-8.54-2.298 3.633-3.438zm-.161-.59l-4.531 4.289 9.762 2.626 4.529-4.289-9.761-2.626zm5.78 15.637l3.98-3.769-3.98-1.071v4.84z"/></symbol><symbol id="icon-clock" viewBox="0 0 72 32"><path fill="var(--color1, #f5f4fa)" d="M1.067 0h69.867c.589 0 1.067.478 1.067 1.067v29.867c0 .589-.478 1.067-1.067 1.067H1.067A1.067 1.067 0 010 30.934V1.067C0 .478.478 0 1.067 0z"/><path fill="var(--color2, #212121)" d="M44.923 15.592c-.001-4.931-3.999-8.927-8.93-8.926s-8.927 3.999-8.926 8.93a8.932 8.932 0 006.149 8.485l.063.018a.394.394 0 00.309-.038.37.37 0 00.165-.208l2.255-7.146a1.115 1.115 0 001.11-1.115v-.006a1.115 1.115 0 00-1.116-1.11h-.006a1.096 1.096 0 00-.485.115l.006-.003-2.978-2.979a.373.373 0 00-.63.268c0 .1.04.191.104.258l2.977 2.98a1.094 1.094 0 00.31 1.345l.002.002-2.148 6.809a8.192 8.192 0 1110.519-4.856 8.243 8.243 0 01-4.301 4.631l-.051.021-.232-1.093a.373.373 0 00-.612-.2l-2.238 1.998a.37.37 0 00.132.632l.003.001 2.858.912a.373.373 0 00.486-.354.344.344 0 00-.009-.08v.002l-.228-1.073c3.224-1.385 5.442-4.533 5.442-8.2v-.02.001zm-8.928-.371a.373.373 0 010 .744.373.373 0 010-.744zm1.226 8.67l1.274-1.137.352 1.657-1.626-.52z"/><path fill="var(--color3, #2196f3)" d="M35.623 8.525v.744a.373.373 0 00.744 0v-.744a.373.373 0 00-.744 0zm-6.695 6.696a.373.373 0 000 .744h.744a.373.373 0 000-.744h-.744zm14.135.744a.373.373 0 000-.744h-.744a.373.373 0 000 .744h.744z"/></symbol><symbol id="icon-computer" viewBox="0 0 72 32"><path fill="var(--color1, #f5f4fa)" d="M1.067 0h69.867c.589 0 1.067.478 1.067 1.067v29.867c0 .589-.478 1.067-1.067 1.067H1.067A1.067 1.067 0 010 30.934V1.067C0 .478.478 0 1.067 0z"/><path fill="var(--color3, #2196f3)" d="M35.373 15.396h.622v2.799h-.622v-2.799zm2.488 1.244h.622v1.555h-.622V16.64zm-4.975.933h.622v.622h-.622v-.622zm-1.866-.311h.622v.933h-.622v-.933z"/><path fill="var(--color2, #212121)" d="M27.599 23.17h14.926a.933.933 0 00.933-.933v-1.244a.933.933 0 00-.933-.933h-.311v-7.755l1.766-1.673a.938.938 0 10-.433-.439l-.002-.006-1.331 1.262v-.717a.933.933 0 00-.933-.933H28.843a.933.933 0 00-.933.933v9.329h-.311a.933.933 0 00-.933.933v1.244c0 .515.418.933.933.933zM44.391 9.488a.31.31 0 110 .622.31.31 0 110-.622zm-15.859 1.244a.31.31 0 01.311-.311h12.438a.31.31 0 01.311.311v1.306l-.622.591v-1.275a.31.31 0 00-.311-.311H29.465a.31.31 0 00-.311.311v7.774a.31.31 0 00.311.311h11.194a.311.311 0 00.311-.311v-5.643l.622-.589v7.165h-13.06v-9.328zm2.799 4.042h-.003a.933.933 0 10.649 1.603l1.081.542a.31.31 0 00.371-.071l2.298-2.585 2.259 1.693a.31.31 0 00.4-.023l1.963-1.859v4.743H29.777v-7.152h10.572v1.552l-2.2 2.083-2.278-1.707a.31.31 0 00-.419.042l-2.329 2.621-.871-.435a.899.899 0 00.012-.111v-.002a.933.933 0 00-.933-.933zm.311.933a.31.31 0 11-.622 0 .31.31 0 11.622 0zm1.865 4.975h3.11v.311a.31.31 0 01-.311.311h-2.488a.31.31 0 01-.311-.311v-.311zm-6.218.311a.31.31 0 01.311-.311h5.286v.311c0 .515.418.933.933.933h2.488a.933.933 0 00.933-.933v-.311h5.286a.31.31 0 01.311.311v1.244a.31.31 0 01-.311.311H27.6a.31.31 0 01-.311-.311v-1.244z"/></symbol><symbol id="icon-email" viewBox="0 0 43 32"><path d="M38.667 0H4C1.795 0 0 1.795 0 4v24c0 2.205 1.795 4 4 4h34.667c2.205 0 4-1.795 4-4V4c0-2.205-1.795-4-4-4zm0 2.667c.181 0 .355.037.512.104L21.334 18.238 3.489 2.771c.151-.065.327-.104.512-.104h34.667zm0 26.666H4A1.333 1.333 0 012.667 28V5.587l17.792 15.421c.233.203.539.327.875.327s.642-.124.876-.328l-.002.001L40 5.587V28c0 .736-.597 1.333-1.333 1.333z"/></symbol><symbol id="icon-facebook" viewBox="0 0 32 32"><path d="M32 16v.02a15.9 15.9 0 01-4.686 11.293A15.902 15.902 0 0116.021 32H16h.001-.02a15.9 15.9 0 01-11.293-4.686A15.902 15.902 0 01.001 16.021V16v-.019A15.9 15.9 0 014.687 4.688 15.902 15.902 0 0115.98.001h.021H16h.02a15.9 15.9 0 0111.293 4.686A15.902 15.902 0 0132 15.98v.021V16z"/><path d="M18.422 11.142h1.329V8.829c-.56-.065-1.21-.102-1.868-.102h-.071.004c-1.915 0-3.226 1.204-3.226 3.418v2.036h-2.113v2.585h2.113v6.505h2.59v-6.505h2.028l.321-2.585H17.18v-1.782c0-.747.201-1.258 1.243-1.258z"/></symbol><symbol id="icon-in" viewBox="0 0 32 32"><path d="M32 16v.02a15.9 15.9 0 01-4.686 11.293A15.902 15.902 0 0116.021 32H16h.001-.02a15.9 15.9 0 01-11.293-4.686A15.902 15.902 0 01.001 16.021V16v-.019A15.9 15.9 0 014.687 4.688 15.902 15.902 0 0115.98.001h.021H16h.02a15.9 15.9 0 0111.293 4.686A15.902 15.902 0 0132 15.98v.021V16z"/><path d="M23.269 23.273h.004v-5.335c0-2.609-.562-4.62-3.613-4.62-1.466 0-2.451.804-2.852 1.567h-.042v-1.324h-2.893v9.711h3.012v-4.808c0-1.266.24-2.491 1.808-2.491 1.545 0 1.567 1.445 1.567 2.572v4.728h3.009zM8.967 13.562h3.016v9.711H8.967v-9.711zm1.507-4.835c-.965 0-1.747.782-1.747 1.747 0 .964.783 1.763 1.747 1.763s1.746-.799 1.746-1.763c0-.964-.782-1.746-1.746-1.747z"/></symbol><symbol id="icon-instagram" viewBox="0 0 32 32"><path d="M32 16v.02a15.9 15.9 0 01-4.686 11.293A15.902 15.902 0 0116.021 32H16h.001-.02a15.9 15.9 0 01-11.293-4.686A15.902 15.902 0 01.001 16.021V16v-.019A15.9 15.9 0 014.687 4.688 15.902 15.902 0 0115.98.001h.021H16h.02a15.9 15.9 0 0111.293 4.686A15.902 15.902 0 0132 15.98v.021V16z"/><path d="M23.258 13.004c-.033-.773-.159-1.304-.337-1.764a3.57 3.57 0 00-.841-1.29l-.001-.001a3.583 3.583 0 00-1.263-.83l-.024-.008c-.463-.179-.991-.304-1.764-.337-.778-.037-1.025-.046-3.001-.046s-2.222.009-2.998.043c-.773.033-1.304.159-1.764.338a3.58 3.58 0 00-1.29.84l-.001.001c-.36.354-.645.784-.83 1.263l-.008.024c-.18.463-.304.991-.338 1.764-.037.778-.046 1.025-.046 3.001s.009 2.222.043 2.998c.034.773.159 1.304.338 1.764.194.505.48.935.84 1.29h.001c.364.369.804.656 1.287.838.463.18.992.305 1.764.338.776.034 1.023.043 2.998.043s2.222-.009 2.998-.043c.773-.033 1.304-.159 1.764-.337a3.741 3.741 0 002.12-2.104l.009-.025c.179-.463.304-.992.338-1.764.034-.776.042-1.023.042-2.998s-.003-2.222-.036-2.998zm-1.309 5.939c-.032.711-.151 1.094-.25 1.349a2.428 2.428 0 01-1.365 1.376l-.016.006c-.255.099-.641.218-1.349.249-.767.034-.997.043-2.938.043s-2.174-.009-2.938-.043c-.711-.031-1.094-.151-1.35-.25a2.237 2.237 0 01-.834-.542l-.001-.001a2.268 2.268 0 01-.538-.819l-.005-.016c-.099-.256-.218-.642-.249-1.35-.034-.767-.043-.998-.043-2.938s.009-2.175.043-2.938c.031-.711.151-1.094.249-1.35.122-.328.308-.608.545-.835l.001-.001c.229-.235.509-.42.821-.537l.016-.005c.255-.099.641-.218 1.349-.25.767-.033.998-.042 2.938-.042 1.943 0 2.174.008 2.938.042.711.031 1.094.151 1.35.25.315.116.602.301.835.543.241.236.426.52.543.836.099.255.218.641.249 1.349.034.767.043.997.043 2.938s-.009 2.167-.043 2.935z"/><path d="M16.027 12.265h-.001a3.737 3.737 0 103.737 3.737v-.001a3.737 3.737 0 00-3.737-3.737zm0 6.16a2.424 2.424 0 110-4.848 2.424 2.424 0 110 4.848zm4.757-6.308a.873.873 0 01-1.746 0 .873.873 0 011.746 0z"/></symbol><symbol id="icon-phone" viewBox="0 0 20 32"><path d="M17 0H3C1.346 0 0 1.346 0 3v26c0 1.654 1.346 3 3 3h14c1.654 0 3-1.346 3-3V3c0-1.654-1.346-3-3-3zM3 2h14a1 1 0 011 1v21H2V3a1 1 0 011-1zm14 28H3a1 1 0 01-1-1v-3h16v3a1 1 0 01-1 1z"/></symbol><symbol id="icon-twitter" viewBox="0 0 32 32"><path d="M32 16v.02a15.9 15.9 0 01-4.686 11.293A15.902 15.902 0 0116.021 32H16h.001-.02a15.9 15.9 0 01-11.293-4.686A15.902 15.902 0 01.001 16.021V16v-.019A15.9 15.9 0 014.687 4.688 15.902 15.902 0 0115.98.001h.021H16h.02a15.9 15.9 0 0111.293 4.686A15.902 15.902 0 0132 15.98v.021V16z"/><path d="M23.273 11.49c-.5.224-1.08.39-1.688.467l-.031.003a2.98 2.98 0 001.306-1.627l.006-.021a5.851 5.851 0 01-1.853.715l-.038.006a2.981 2.981 0 00-5.158 2.036v.003c0 .236.02.464.07.68a8.443 8.443 0 01-6.147-3.119 2.984 2.984 0 00.917 3.986 2.937 2.937 0 01-1.362-.375l.015.008v.033a2.995 2.995 0 002.37 2.927l.02.003a2.906 2.906 0 01-.756.098h-.028.001-.047c-.183 0-.362-.019-.534-.054l.017.003a3.012 3.012 0 002.786 2.078 5.948 5.948 0 01-3.69 1.271h-.047c-.238 0-.472-.015-.701-.044l.027.003a8.317 8.317 0 004.547 1.338h.029-.002c5.487 0 8.487-4.545 8.487-8.486 0-.131-.004-.259-.011-.385a5.978 5.978 0 001.481-1.526l.014-.021z"/></symbol></defs></svg>